<?xml version="1.0" encoding="utf-8"?>
<!-- Generator: Adobe Illustrator 18.0.0, SVG Export Plug-In . SVG Version: 6.00 Build 0)  -->
<!DOCTYPE svg PUBLIC "-//W3C//DTD SVG 1.1//EN" "http://www.w3.org/Graphics/SVG/1.1/DTD/svg11.dtd">
<svg version="1.1" id="Layer_1" xmlns="http://www.w3.org/2000/svg" xmlns:xlink="http://www.w3.org/1999/xlink" x="0px" y="0px"
	 viewBox="0 0 600 600" enable-background="new 0 0 600 600" xml:space="preserve">
<g>
	<path fill="#1B5FAC" d="M115.7,274.9l-53.1,46.6v-75.1l53.1-49.3V274.9z"/>
	<path fill="#1B5FAC" d="M262.7,97.7h73.4l35.4,47H227.3L262.7,97.7z"/>
	<path fill="#1783BF" d="M62.6,321.5V247l184.5,96.8v74.4L62.6,514.5V440L176.9,380L62.6,321.5z"/>
	<path fill="#1B5FAC" d="M247.1,343.8v74.4L62.6,514.5V440L176.9,380L247.1,343.8z"/>
	<path fill="#1783BF" d="M262.7,97.7l34.8-52.2l38.6,52.2v416.8h-73.4V97.7z"/>
	<path fill="#1783BF" d="M262.7,97.7l34.8-52.2l38.6,52.2l35.4,47l-74.1-62.7l-70.2,62.7L262.7,97.7z"/>
	<path fill="#1B5FAC" d="M422,380L536.3,440v74.4l-184.5-96.3v-74.4L536.3,247v74.5L422,380z"/>
	<path fill="#1783BF" d="M422,380L536.3,440v74.4l-184.5-96.3v-74.4L422,380z"/>
	<path fill="#1783BF" d="M62.6,423.7l-39.3-34.4v86.5l39.3,38.7V423.7z"/>
	<path fill="#1B5FAC" d="M536.3,514.5l39.3-38.7v-86.5l-39.3,34.4V514.5z"/>
	<path fill="#1783BF" d="M483.2,197l53.1,49.3v75.1l-53.1-46.6V197z"/>
</g>
</svg>
